# xmcd
#
# Track frame offsets:
# 150
# 2546
# 15710
# 27601
# 43521
# 55144
# 71058
# 82648
# 92732
# 105484
# 122533
# 131734
# 148460
# 150887
# 180370
# 193217
# 207168
# 227454
# 250032
# 276078
# 292006
#
# Disc length: 4123 seconds
#
# Revision: 0
# Processed by: cddbd v1.5.2PL0 Copyright (c) Steve Scherf et al.
# Submitted via: Audion 3.0.2 (http://www.panic.com/audion/)
#
DISCID=19101915
DTITLE=Trio - Trio
DYEAR=1900
DGENRE=
TTITLE0=Achtung Achtung
TTITLE1=Ja Ja Ja
TTITLE2=Kummer
TTITLE3=Broken Hearts For You And Me
TTITLE4=Nasty
TTITLE5=Energie
TTITLE6=a
TTITLE7=Ya Ya
TTITLE8=a
TTITLE9=a
TTITLE10=a
TTITLE11=Sabine Sabine Sabine
TTITLE12=Trio (Original Version Banana Boat Song)
TTITLE13=a
TTITLE14=a
TTITLE15=a
TTITLE16=a
TTITLE17=a
TTITLE18=a
TTITLE19=a
TTITLE20=a
EXTD=
EXTT0=
EXTT1=
EXTT2=
EXTT3=
EXTT4=
EXTT5=
EXTT6=
EXTT7=
EXTT8=
EXTT9=
EXTT10=
EXTT11=
EXTT12=
EXTT13=
EXTT14=
EXTT15=
EXTT16=
EXTT17=
EXTT18=
EXTT19=
EXTT20=
PLAYORDER=
